<?xml version="1.0" standalone="no"?>
<!DOCTYPE svg PUBLIC "-//W3C//DTD SVG 20010904//EN"
 "http://www.w3.org/TR/2001/REC-SVG-20010904/DTD/svg10.dtd">
<svg version="1.0" xmlns="http://www.w3.org/2000/svg"
 width="700.000000pt" height="700.000000pt" viewBox="0 0 700.000000 700.000000"
 preserveAspectRatio="xMidYMid meet">
<metadata>
Created by potrace 1.11, written by Peter Selinger 2001-2013
</metadata>
<g transform="translate(0.000000,700.000000) scale(0.100000,-0.100000)"
fill="#000000" stroke="none">
<path d="M5120 6222 c-19 -1 -45 -5 -57 -7 -30 -7 -83 -53 -95 -84 -6 -16 -10
-205 -10 -478 0 -249 -1 -453 -3 -453 -3 0 -163 131 -430 350 -450 371 -437
361 -580 479 -180 149 -303 198 -475 188 -95 -6 -167 -25 -248 -66 -34 -17
-214 -155 -268 -206 -7 -5 -29 -24 -50 -41 -52 -43 -294 -241 -319 -262 -11
-10 -364 -301 -785 -647 -421 -346 -832 -685 -915 -753 -82 -68 -163 -135
-180 -148 -734 -602 -713 -583 -700 -670 6 -40 48 -103 145 -217 22 -26 28
-33 123 -149 53 -63 102 -113 123 -123 51 -24 127 -11 167 30 8 8 44 37 79 65
34 28 83 69 108 90 47 40 436 360 511 420 23 19 57 47 74 61 40 34 489 404
545 449 24 19 58 47 75 61 16 14 239 198 495 409 256 210 483 397 505 416 505
418 501 415 578 400 21 -4 93 -56 218 -159 302 -247 574 -471 579 -477 3 -3
25 -21 50 -40 25 -19 47 -37 50 -40 3 -3 43 -37 90 -75 47 -38 94 -77 105 -87
11 -9 65 -53 120 -98 55 -45 120 -99 145 -120 60 -51 117 -98 170 -140 24 -19
175 -143 334 -275 160 -132 329 -272 376 -310 47 -38 159 -130 250 -205 91
-74 174 -143 185 -154 11 -10 36 -30 55 -45 19 -14 46 -36 60 -48 116 -100
164 -132 205 -138 69 -11 101 11 217 152 57 70 110 133 118 142 42 45 121 151
130 175 14 38 13 73 -6 111 -11 23 -103 106 -287 257 -149 123 -339 279 -422
348 -83 69 -171 141 -194 160 -24 19 -67 54 -95 78 l-51 43 -5 869 c-5 863 -5
869 -26 897 -48 64 -51 65 -417 66 -182 1 -348 1 -367 -1z"/>
<path d="M3435 4828 c-18 -10 -622 -503 -635 -518 -3 -3 -66 -55 -140 -115
-74 -60 -140 -114 -146 -120 -6 -5 -30 -26 -54 -45 -24 -19 -62 -50 -84 -69
-23 -18 -61 -50 -85 -70 -25 -20 -63 -52 -86 -71 -23 -19 -61 -51 -85 -70 -24
-19 -58 -47 -75 -61 -34 -29 -45 -39 -175 -146 -53 -43 -115 -94 -139 -113
-24 -19 -57 -47 -75 -62 -17 -14 -133 -110 -258 -213 -126 -103 -228 -192
-229 -198 0 -7 -1 -460 -3 -1007 -1 -816 1 -1003 12 -1037 17 -53 72 -109 120
-123 25 -8 265 -10 762 -8 l725 3 41 28 c22 15 51 46 65 70 l24 42 1 630 c1
618 1 631 22 670 26 51 55 76 112 95 38 13 113 15 460 14 456 -1 459 -1 519
-63 54 -55 54 -55 55 -726 l1 -620 27 -47 c20 -34 41 -53 79 -71 l50 -26 710
-1 c445 0 724 3 747 10 49 13 106 68 122 116 10 31 13 256 14 1034 1 547 -1
1003 -3 1013 -2 10 -51 57 -110 105 -58 47 -122 100 -142 117 -46 39 -72 61
-134 110 -27 22 -55 45 -61 50 -6 6 -30 26 -54 45 -24 19 -100 82 -170 140
-69 58 -146 121 -170 140 -24 19 -58 47 -75 61 -16 14 -41 34 -54 45 -13 10
-28 24 -35 29 -6 6 -47 39 -91 75 -44 35 -82 67 -85 70 -3 3 -126 106 -275
227 -563 462 -651 534 -670 551 -67 59 -126 103 -149 112 -36 13 -96 12 -121
-2z"/>
</g>
</svg>
